{"title":"The Bag Man 2014 HDRip XviD titler","uid":9696646,"size":963487094,"categoryP":"video","categoryS":"movies","magnet":"?xt=urn:btih:52ce1a9f874e22fde4fdc7046c316754299dac22&amp;dn=The+Bag+Man+2014+HDRip+XviD+titler&amp;tr=udp%3A%2F%2Ftracker.openbittorrent.com%3A80&amp;tr=udp%3A%2F%2Fopen.demonii.com%3A1337&amp;tr=udp%3A%2F%2Ftracker.coppersurfer.tk%3A6969&amp;tr=udp%3A%2F%2Fexodus.desync.com%3A6969","seeders":1,"leechers":0,"uploader":"movieZ.freak","files":5,"time":1393944820,"description":"SOURCE: The Bag Man 2014 720p WEB-DL H264 - PublicHD\n\n\n &lt;a href=&quot;\nhttp://www.imdb.com/title/tt2212008/&quot; rel=&quot;nofollow&quot; target=&quot;_NEW&quot;&gt;\nhttp://www.imdb.com/title/tt2212008/&lt;/a&gt;\n\n\n &lt;a href=&quot;\nhttp://www.rottentomatoes.com/m/the_bag_man/&quot; rel=&quot;nofollow&quot; target=&quot;_NEW&quot;&gt;\nhttp://www.rottentomatoes.com/m/the_bag_man/&lt;/a&gt;\n\n\n &lt;a href=&quot;\nhttp://en.wikipedia.org/wiki/The_Bag_Man&quot; rel=&quot;nofollow&quot; target=&quot;_NEW&quot;&gt;\nhttp://en.wikipedia.org/wiki/The_Bag_Man&lt;/a&gt;\n\n\n\n\n- SAMPLE: Yes\n\n\n- SUBTITLE: English\n\n\n- LANGUAGE / AUDIO: English\n\n\n\n\nSCREENSHOTS:\n-------------------    &lt;a href=&quot;\nhttp://someimage.com/f3SP&quot; rel=&quot;nofollow&quot; target=&quot;_NEW&quot;&gt;\nhttp://someimage.com/f3SP&lt;/a&gt;\n\n\n\nDIRECTOR: David Grovic\n\n\n\nCAST: John Cusack, Rebecca Da Costa, Robert De Niro, Crispin Glover, Dominic Purcell,...\n\n\nPLOT:\n-----------\nTHE BAG MAN is a taut crime thriller that follows the story of JACK (John Cusack), a tough guy with chronic bad luck but human touches. Hired by DRAGNA (Robert De Niro), a legendary crime boss to complete a simple but unusual task, the plot centers around the anticipated arrival of Dragna who has summoned JACK and a host of shady characters to a remote location for unknown reasons. Over the course of a long and violently eventful night awaiting Dragna's arrival, Jack's path crosses that of RIVKA (Rebecca Da Costa), a stunningly beautiful woman whose life becomes physically and emotionally entangled with Jack's. When Dragna finally arrives on the scene there are sudden and extreme consequences for all.\n\n\n************************************\n\n- Duration: 1h 48mn\n\n- Bit rate: 1029 Kbps\n\n- Res: 720 x 296\n\n- AR: 2.40:1\n\n- FPS: 23.976\n\n- Audio: AC3, 2 channels, 128Kbps\n\n************************************\n\nGeneral\n-----------\n\nFormat : AVI\nFormat/Info : Audio Video Interleave\nFile size : 906 MiB\nDuration : 1h 48mn\nOverall bit rate : 1167 Kbps\nWriting library : VirtualDub build 35491\n\n\nVideo\n-----------\n\nFormat : MPEG-4 Visual\nFormat profile : Advanced Simple@L5\nFormat settings, BVOP : 2\nFormat settings, QPel : No\nFormat settings, GMC : No warppoints\nFormat settings, Matrix : Default (H.263)\nCodec ID : XVID\nCodec ID/Hint : XviD\nDuration : 1h 48mn\nBit rate : 1029 Kbps\nWidth : 720 pixels\nHeight : 296 pixels\nDisplay aspect ratio : 2.40:1\nFrame rate : 23.976 fps\nColor space : YUV\nChroma subsampling : 4:2:0\nBit depth : 8 bits\nScan type : Progressive\nCompression mode : Lossy\nBits/(Pixel*Frame) : 0.201\nStream size : 799 MiB (88%)\nWriting library : XviD 65\n\n\nAudio\n--------\n\nFormat : AC-3\nFormat/Info : Audio Coding 3\nMode extension : CM (complete main)\nFormat settings, Endianness : Big\nCodec ID : 2000\nDuration : 1h 48mn\nBit rate mode : Constant\nBit rate : 128 Kbps\nChannel(s) : 2 channels\nChannel positions : Front: L R\nSampling rate : 48.0 KHz\nBit depth : 16 bits\nCompression mode : Lossy\nStream size : 99.4 MiB (11%)\nAlignment : Aligned on interleaves\nInterleave, duration : 42 ms (1.00 video frame)\nInterleave, preload duration : 512 ms","torrent":{"xt":"urn:btih:52ce1a9f874e22fde4fdc7046c316754299dac22","amp;dn":"The+Bag+Man+2014+HDRip+XviD+titler","amp;tr":["udp%3A%2F%2Ftracker.openbittorrent.com%3A80","udp%3A%2F%2Fopen.demonii.com%3A1337","udp%3A%2F%2Ftracker.coppersurfer.tk%3A6969","udp%3A%2F%2Fexodus.desync.com%3A6969"],"infoHash":"52ce1a9f874e22fde4fdc7046c316754299dac22","infoHashBuffer":{"type":"Buffer","data":[82,206,26,159,135,78,34,253,228,253,199,4,108,49,103,84,41,157,172,34]},"announce":[],"urlList":[]}}